<?xml version="1.0" standalone="no"?>
<!DOCTYPE svg PUBLIC "-//W3C//DTD SVG 20010904//EN"
 "http://www.w3.org/TR/2001/REC-SVG-20010904/DTD/svg10.dtd">
<svg version="1.0" xmlns="http://www.w3.org/2000/svg"
 width="264.000000pt" height="124.000000pt" viewBox="0 0 264.000000 124.000000"
 preserveAspectRatio="xMidYMid meet">

<g transform="translate(0.000000,124.000000) scale(0.100000,-0.100000)"
fill="#000000" stroke="none">
<path d="M30 1150 l0 -30 1285 0 1285 0 0 30 0 30 -1285 0 -1285 0 0 -30z"/>
<path d="M40 920 l0 -49 58 -3 57 -3 3 -102 3 -103 33 0 c59 0 66 19 66 173
l0 137 -110 0 -110 0 0 -50z"/>
<path d="M400 920 l0 -50 -50 0 -50 0 0 -49 0 -50 48 -3 47 -3 3 -52 3 -53 50
0 49 0 0 155 0 155 -50 0 -50 0 0 -50z"/>
<path d="M568 959 c-16 -9 -18 -26 -18 -125 l0 -114 163 2 162 3 3 48 3 47
-100 0 c-54 0 -106 3 -115 6 -12 5 -16 21 -16 75 l0 69 -32 0 c-18 0 -41 -5
-50 -11z"/>
<path d="M1213 943 c-52 -75 -123 -203 -123 -222 0 -14 13 -27 40 -41 l40 -20
23 37 c13 21 37 59 53 85 l30 47 48 -82 c27 -45 50 -84 52 -86 4 -5 94 53 94
61 0 3 -33 60 -73 125 l-74 118 -45 3 c-41 3 -48 0 -65 -25z"/>
<path d="M1490 815 l0 -155 45 0 45 0 0 50 c0 38 4 50 15 50 11 0 15 -12 15
-50 l0 -50 45 0 45 0 0 155 0 155 -45 0 -45 0 0 -55 c0 -42 -3 -55 -15 -55
-12 0 -15 13 -15 55 l0 55 -45 0 -45 0 0 -155z"/>
<path d="M1750 920 l0 -50 54 0 c64 0 66 -3 66 -127 l0 -83 34 0 c58 0 66 23
66 177 l0 133 -110 0 -110 0 0 -50z"/>
<path d="M2030 815 l0 -155 49 0 50 0 3 53 c3 51 4 52 36 55 31 3 32 4 32 53
l0 49 -35 0 -35 0 0 50 0 50 -50 0 -50 0 0 -155z"/>
<path d="M2262 958 c-8 -8 -12 -50 -12 -125 l0 -113 163 2 162 3 3 47 3 47
-113 3 c-105 3 -113 4 -113 23 0 19 8 20 113 23 l112 3 0 49 0 50 -153 0
c-106 0 -157 -4 -165 -12z"/>
<path d="M547 673 c-4 -3 -7 -26 -7 -50 l0 -43 170 0 170 0 0 50 0 50 -163 0
c-90 0 -167 -3 -170 -7z"/>
<path d="M2240 630 l0 -50 170 0 170 0 0 50 0 50 -170 0 -170 0 0 -50z"/>
<path d="M1498 628 c-67 -39 -88 -125 -45 -189 88 -132 282 -47 246 109 -9 41
-34 71 -76 88 -45 19 -82 17 -125 -8z m95 -100 c15 -23 1 -48 -28 -48 -14 0
-25 2 -25 4 0 2 -3 11 -6 19 -6 16 23 50 39 44 6 -2 15 -10 20 -19z"/>
<path d="M253 625 c-22 -15 -23 -23 -23 -136 l0 -120 133 3 132 3 3 48 3 47
-70 0 c-85 0 -101 6 -101 35 0 29 16 35 101 35 l70 0 -3 48 -3 47 -110 3 c-87
2 -115 -1 -132 -13z"/>
<path d="M1867 633 c-4 -3 -7 -26 -7 -50 l0 -43 69 0 c102 0 101 1 101 -92 l0
-81 41 6 c23 3 46 11 50 19 5 7 9 66 9 131 l0 117 -128 0 c-71 0 -132 -3 -135
-7z"/>
<path d="M562 538 c-8 -8 -12 -50 -12 -125 l0 -113 163 2 162 3 3 48 3 47
-100 0 c-54 0 -106 3 -115 6 -12 5 -16 21 -16 75 l0 69 -38 0 c-21 0 -43 -5
-50 -12z"/>
<path d="M2250 500 l0 -50 104 0 c113 0 133 -9 122 -54 -6 -23 -10 -24 -106
-28 -76 -2 -103 -7 -110 -18 -5 -8 -10 -72 -10 -142 l0 -128 165 0 165 0 0 50
0 49 -112 3 -113 3 -3 36 c-4 45 6 49 136 49 l92 0 0 140 0 140 -165 0 -165 0
0 -50z"/>
</g>
</svg>
